<svg width="300" height="600" viewBox="0 0 300 600" fill="none" xmlns="http://www.w3.org/2000/svg">
<mask id="path-1-inside-1_4013_1066" fill="white">
<path fill-rule="evenodd" clip-rule="evenodd" d="M300 24.2433C300 21.7558 297.488 20 295 20V20C286.716 20 280 13.2843 280 5V5C280 2.51247 278.244 0 275.757 0H24.2433C21.7558 0 20 2.51246 20 5V5C20 13.2843 13.2843 20 5 20V20C2.51246 20 0 21.7558 0 24.2433V468.757C0 471.244 2.51247 473 5 473V473C13.2843 473 20 479.716 20 488C20 496.284 13.2843 503 5 503V503C2.51247 503 0 504.756 0 507.243V575.757C0 578.244 2.51245 580 5 580V580C13.2843 580 20 586.716 20 595V595C20 597.488 21.7558 600 24.2433 600H275.757C278.244 600 280 597.488 280 595V595C280 586.716 286.716 580 295 580V580C297.488 580 300 578.244 300 575.757V507.243C300 504.756 297.488 503 295 503V503C286.716 503 280 496.284 280 488C280 479.716 286.716 473 295 473V473C297.488 473 300 471.244 300 468.757V24.2433ZM280 487C280 487.552 279.552 488 279 488H273C272.448 488 272 487.552 272 487C272 486.448 272.448 486 273 486H279C279.552 486 280 486.448 280 487ZM267 488C267.552 488 268 487.552 268 487C268 486.448 267.552 486 267 486H261C260.448 486 260 486.448 260 487C260 487.552 260.448 488 261 488H267ZM256 487C256 487.552 255.552 488 255 488H249C248.448 488 248 487.552 248 487C248 486.448 248.448 486 249 486H255C255.552 486 256 486.448 256 487ZM243 488C243.552 488 244 487.552 244 487C244 486.448 243.552 486 243 486H237C236.448 486 236 486.448 236 487C236 487.552 236.448 488 237 488H243ZM232 487C232 487.552 231.552 488 231 488H225C224.448 488 224 487.552 224 487C224 486.448 224.448 486 225 486H231C231.552 486 232 486.448 232 487ZM219 488C219.552 488 220 487.552 220 487C220 486.448 219.552 486 219 486H213C212.448 486 212 486.448 212 487C212 487.552 212.448 488 213 488H219ZM208 487C208 487.552 207.552 488 207 488H201C200.448 488 200 487.552 200 487C200 486.448 200.448 486 201 486H207C207.552 486 208 486.448 208 487ZM195 488C195.552 488 196 487.552 196 487C196 486.448 195.552 486 195 486H189C188.448 486 188 486.448 188 487C188 487.552 188.448 488 189 488H195ZM184 487C184 487.552 183.552 488 183 488H177C176.448 488 176 487.552 176 487C176 486.448 176.448 486 177 486H183C183.552 486 184 486.448 184 487ZM171 488C171.552 488 172 487.552 172 487C172 486.448 171.552 486 171 486H165C164.448 486 164 486.448 164 487C164 487.552 164.448 488 165 488H171ZM160 487C160 487.552 159.552 488 159 488H153C152.448 488 152 487.552 152 487C152 486.448 152.448 486 153 486H159C159.552 486 160 486.448 160 487ZM147 488C147.552 488 148 487.552 148 487C148 486.448 147.552 486 147 486H141C140.448 486 140 486.448 140 487C140 487.552 140.448 488 141 488H147ZM136 487C136 487.552 135.552 488 135 488H129C128.448 488 128 487.552 128 487C128 486.448 128.448 486 129 486H135C135.552 486 136 486.448 136 487ZM123 488C123.552 488 124 487.552 124 487C124 486.448 123.552 486 123 486H117C116.448 486 116 486.448 116 487C116 487.552 116.448 488 117 488H123ZM112 487C112 487.552 111.552 488 111 488H105C104.448 488 104 487.552 104 487C104 486.448 104.448 486 105 486H111C111.552 486 112 486.448 112 487ZM99 488C99.5523 488 100 487.552 100 487C100 486.448 99.5523 486 99 486H93C92.4477 486 92 486.448 92 487C92 487.552 92.4477 488 93 488H99ZM88 487C88 487.552 87.5523 488 87 488H81C80.4477 488 80 487.552 80 487C80 486.448 80.4477 486 81 486H87C87.5523 486 88 486.448 88 487ZM75 488C75.5523 488 76 487.552 76 487C76 486.448 75.5523 486 75 486H69C68.4477 486 68 486.448 68 487C68 487.552 68.4477 488 69 488H75ZM64 487C64 487.552 63.5523 488 63 488H57C56.4477 488 56 487.552 56 487C56 486.448 56.4477 486 57 486H63C63.5523 486 64 486.448 64 487ZM51 488C51.5523 488 52 487.552 52 487C52 486.448 51.5523 486 51 486H45C44.4477 486 44 486.448 44 487C44 487.552 44.4477 488 45 488H51ZM40 487C40 487.552 39.5523 488 39 488H33C32.4477 488 32 487.552 32 487C32 486.448 32.4477 486 33 486H39C39.5523 486 40 486.448 40 487ZM27 488C27.5523 488 28 487.552 28 487C28 486.448 27.5523 486 27 486H21C20.4477 486 20 486.448 20 487C20 487.552 20.4477 488 21 488H27Z"/>
</mask>
<path fill-rule="evenodd" clip-rule="evenodd" d="M300 24.2433C300 21.7558 297.488 20 295 20V20C286.716 20 280 13.2843 280 5V5C280 2.51247 278.244 0 275.757 0H24.2433C21.7558 0 20 2.51246 20 5V5C20 13.2843 13.2843 20 5 20V20C2.51246 20 0 21.7558 0 24.2433V468.757C0 471.244 2.51247 473 5 473V473C13.2843 473 20 479.716 20 488C20 496.284 13.2843 503 5 503V503C2.51247 503 0 504.756 0 507.243V575.757C0 578.244 2.51245 580 5 580V580C13.2843 580 20 586.716 20 595V595C20 597.488 21.7558 600 24.2433 600H275.757C278.244 600 280 597.488 280 595V595C280 586.716 286.716 580 295 580V580C297.488 580 300 578.244 300 575.757V507.243C300 504.756 297.488 503 295 503V503C286.716 503 280 496.284 280 488C280 479.716 286.716 473 295 473V473C297.488 473 300 471.244 300 468.757V24.2433ZM280 487C280 487.552 279.552 488 279 488H273C272.448 488 272 487.552 272 487C272 486.448 272.448 486 273 486H279C279.552 486 280 486.448 280 487ZM267 488C267.552 488 268 487.552 268 487C268 486.448 267.552 486 267 486H261C260.448 486 260 486.448 260 487C260 487.552 260.448 488 261 488H267ZM256 487C256 487.552 255.552 488 255 488H249C248.448 488 248 487.552 248 487C248 486.448 248.448 486 249 486H255C255.552 486 256 486.448 256 487ZM243 488C243.552 488 244 487.552 244 487C244 486.448 243.552 486 243 486H237C236.448 486 236 486.448 236 487C236 487.552 236.448 488 237 488H243ZM232 487C232 487.552 231.552 488 231 488H225C224.448 488 224 487.552 224 487C224 486.448 224.448 486 225 486H231C231.552 486 232 486.448 232 487ZM219 488C219.552 488 220 487.552 220 487C220 486.448 219.552 486 219 486H213C212.448 486 212 486.448 212 487C212 487.552 212.448 488 213 488H219ZM208 487C208 487.552 207.552 488 207 488H201C200.448 488 200 487.552 200 487C200 486.448 200.448 486 201 486H207C207.552 486 208 486.448 208 487ZM195 488C195.552 488 196 487.552 196 487C196 486.448 195.552 486 195 486H189C188.448 486 188 486.448 188 487C188 487.552 188.448 488 189 488H195ZM184 487C184 487.552 183.552 488 183 488H177C176.448 488 176 487.552 176 487C176 486.448 176.448 486 177 486H183C183.552 486 184 486.448 184 487ZM171 488C171.552 488 172 487.552 172 487C172 486.448 171.552 486 171 486H165C164.448 486 164 486.448 164 487C164 487.552 164.448 488 165 488H171ZM160 487C160 487.552 159.552 488 159 488H153C152.448 488 152 487.552 152 487C152 486.448 152.448 486 153 486H159C159.552 486 160 486.448 160 487ZM147 488C147.552 488 148 487.552 148 487C148 486.448 147.552 486 147 486H141C140.448 486 140 486.448 140 487C140 487.552 140.448 488 141 488H147ZM136 487C136 487.552 135.552 488 135 488H129C128.448 488 128 487.552 128 487C128 486.448 128.448 486 129 486H135C135.552 486 136 486.448 136 487ZM123 488C123.552 488 124 487.552 124 487C124 486.448 123.552 486 123 486H117C116.448 486 116 486.448 116 487C116 487.552 116.448 488 117 488H123ZM112 487C112 487.552 111.552 488 111 488H105C104.448 488 104 487.552 104 487C104 486.448 104.448 486 105 486H111C111.552 486 112 486.448 112 487ZM99 488C99.5523 488 100 487.552 100 487C100 486.448 99.5523 486 99 486H93C92.4477 486 92 486.448 92 487C92 487.552 92.4477 488 93 488H99ZM88 487C88 487.552 87.5523 488 87 488H81C80.4477 488 80 487.552 80 487C80 486.448 80.4477 486 81 486H87C87.5523 486 88 486.448 88 487ZM75 488C75.5523 488 76 487.552 76 487C76 486.448 75.5523 486 75 486H69C68.4477 486 68 486.448 68 487C68 487.552 68.4477 488 69 488H75ZM64 487C64 487.552 63.5523 488 63 488H57C56.4477 488 56 487.552 56 487C56 486.448 56.4477 486 57 486H63C63.5523 486 64 486.448 64 487ZM51 488C51.5523 488 52 487.552 52 487C52 486.448 51.5523 486 51 486H45C44.4477 486 44 486.448 44 487C44 487.552 44.4477 488 45 488H51ZM40 487C40 487.552 39.5523 488 39 488H33C32.4477 488 32 487.552 32 487C32 486.448 32.4477 486 33 486H39C39.5523 486 40 486.448 40 487ZM27 488C27.5523 488 28 487.552 28 487C28 486.448 27.5523 486 27 486H21C20.4477 486 20 486.448 20 487C20 487.552 20.4477 488 21 488H27Z" fill="#072C31"/>
<path fill-rule="evenodd" clip-rule="evenodd" d="M300 24.2433C300 21.7558 297.488 20 295 20V20C286.716 20 280 13.2843 280 5V5C280 2.51247 278.244 0 275.757 0H24.2433C21.7558 0 20 2.51246 20 5V5C20 13.2843 13.2843 20 5 20V20C2.51246 20 0 21.7558 0 24.2433V468.757C0 471.244 2.51247 473 5 473V473C13.2843 473 20 479.716 20 488C20 496.284 13.2843 503 5 503V503C2.51247 503 0 504.756 0 507.243V575.757C0 578.244 2.51245 580 5 580V580C13.2843 580 20 586.716 20 595V595C20 597.488 21.7558 600 24.2433 600H275.757C278.244 600 280 597.488 280 595V595C280 586.716 286.716 580 295 580V580C297.488 580 300 578.244 300 575.757V507.243C300 504.756 297.488 503 295 503V503C286.716 503 280 496.284 280 488C280 479.716 286.716 473 295 473V473C297.488 473 300 471.244 300 468.757V24.2433ZM280 487C280 487.552 279.552 488 279 488H273C272.448 488 272 487.552 272 487C272 486.448 272.448 486 273 486H279C279.552 486 280 486.448 280 487ZM267 488C267.552 488 268 487.552 268 487C268 486.448 267.552 486 267 486H261C260.448 486 260 486.448 260 487C260 487.552 260.448 488 261 488H267ZM256 487C256 487.552 255.552 488 255 488H249C248.448 488 248 487.552 248 487C248 486.448 248.448 486 249 486H255C255.552 486 256 486.448 256 487ZM243 488C243.552 488 244 487.552 244 487C244 486.448 243.552 486 243 486H237C236.448 486 236 486.448 236 487C236 487.552 236.448 488 237 488H243ZM232 487C232 487.552 231.552 488 231 488H225C224.448 488 224 487.552 224 487C224 486.448 224.448 486 225 486H231C231.552 486 232 486.448 232 487ZM219 488C219.552 488 220 487.552 220 487C220 486.448 219.552 486 219 486H213C212.448 486 212 486.448 212 487C212 487.552 212.448 488 213 488H219ZM208 487C208 487.552 207.552 488 207 488H201C200.448 488 200 487.552 200 487C200 486.448 200.448 486 201 486H207C207.552 486 208 486.448 208 487ZM195 488C195.552 488 196 487.552 196 487C196 486.448 195.552 486 195 486H189C188.448 486 188 486.448 188 487C188 487.552 188.448 488 189 488H195ZM184 487C184 487.552 183.552 488 183 488H177C176.448 488 176 487.552 176 487C176 486.448 176.448 486 177 486H183C183.552 486 184 486.448 184 487ZM171 488C171.552 488 172 487.552 172 487C172 486.448 171.552 486 171 486H165C164.448 486 164 486.448 164 487C164 487.552 164.448 488 165 488H171ZM160 487C160 487.552 159.552 488 159 488H153C152.448 488 152 487.552 152 487C152 486.448 152.448 486 153 486H159C159.552 486 160 486.448 160 487ZM147 488C147.552 488 148 487.552 148 487C148 486.448 147.552 486 147 486H141C140.448 486 140 486.448 140 487C140 487.552 140.448 488 141 488H147ZM136 487C136 487.552 135.552 488 135 488H129C128.448 488 128 487.552 128 487C128 486.448 128.448 486 129 486H135C135.552 486 136 486.448 136 487ZM123 488C123.552 488 124 487.552 124 487C124 486.448 123.552 486 123 486H117C116.448 486 116 486.448 116 487C116 487.552 116.448 488 117 488H123ZM112 487C112 487.552 111.552 488 111 488H105C104.448 488 104 487.552 104 487C104 486.448 104.448 486 105 486H111C111.552 486 112 486.448 112 487ZM99 488C99.5523 488 100 487.552 100 487C100 486.448 99.5523 486 99 486H93C92.4477 486 92 486.448 92 487C92 487.552 92.4477 488 93 488H99ZM88 487C88 487.552 87.5523 488 87 488H81C80.4477 488 80 487.552 80 487C80 486.448 80.4477 486 81 486H87C87.5523 486 88 486.448 88 487ZM75 488C75.5523 488 76 487.552 76 487C76 486.448 75.5523 486 75 486H69C68.4477 486 68 486.448 68 487C68 487.552 68.4477 488 69 488H75ZM64 487C64 487.552 63.5523 488 63 488H57C56.4477 488 56 487.552 56 487C56 486.448 56.4477 486 57 486H63C63.5523 486 64 486.448 64 487ZM51 488C51.5523 488 52 487.552 52 487C52 486.448 51.5523 486 51 486H45C44.4477 486 44 486.448 44 487C44 487.552 44.4477 488 45 488H51ZM40 487C40 487.552 39.5523 488 39 488H33C32.4477 488 32 487.552 32 487C32 486.448 32.4477 486 33 486H39C39.5523 486 40 486.448 40 487ZM27 488C27.5523 488 28 487.552 28 487C28 486.448 27.5523 486 27 486H21C20.4477 486 20 486.448 20 487C20 487.552 20.4477 488 21 488H27Z" fill="url(#paint0_radial_4013_1066)"/>
<path fill-rule="evenodd" clip-rule="evenodd" d="M300 24.2433C300 21.7558 297.488 20 295 20V20C286.716 20 280 13.2843 280 5V5C280 2.51247 278.244 0 275.757 0H24.2433C21.7558 0 20 2.51246 20 5V5C20 13.2843 13.2843 20 5 20V20C2.51246 20 0 21.7558 0 24.2433V468.757C0 471.244 2.51247 473 5 473V473C13.2843 473 20 479.716 20 488C20 496.284 13.2843 503 5 503V503C2.51247 503 0 504.756 0 507.243V575.757C0 578.244 2.51245 580 5 580V580C13.2843 580 20 586.716 20 595V595C20 597.488 21.7558 600 24.2433 600H275.757C278.244 600 280 597.488 280 595V595C280 586.716 286.716 580 295 580V580C297.488 580 300 578.244 300 575.757V507.243C300 504.756 297.488 503 295 503V503C286.716 503 280 496.284 280 488C280 479.716 286.716 473 295 473V473C297.488 473 300 471.244 300 468.757V24.2433ZM280 487C280 487.552 279.552 488 279 488H273C272.448 488 272 487.552 272 487C272 486.448 272.448 486 273 486H279C279.552 486 280 486.448 280 487ZM267 488C267.552 488 268 487.552 268 487C268 486.448 267.552 486 267 486H261C260.448 486 260 486.448 260 487C260 487.552 260.448 488 261 488H267ZM256 487C256 487.552 255.552 488 255 488H249C248.448 488 248 487.552 248 487C248 486.448 248.448 486 249 486H255C255.552 486 256 486.448 256 487ZM243 488C243.552 488 244 487.552 244 487C244 486.448 243.552 486 243 486H237C236.448 486 236 486.448 236 487C236 487.552 236.448 488 237 488H243ZM232 487C232 487.552 231.552 488 231 488H225C224.448 488 224 487.552 224 487C224 486.448 224.448 486 225 486H231C231.552 486 232 486.448 232 487ZM219 488C219.552 488 220 487.552 220 487C220 486.448 219.552 486 219 486H213C212.448 486 212 486.448 212 487C212 487.552 212.448 488 213 488H219ZM208 487C208 487.552 207.552 488 207 488H201C200.448 488 200 487.552 200 487C200 486.448 200.448 486 201 486H207C207.552 486 208 486.448 208 487ZM195 488C195.552 488 196 487.552 196 487C196 486.448 195.552 486 195 486H189C188.448 486 188 486.448 188 487C188 487.552 188.448 488 189 488H195ZM184 487C184 487.552 183.552 488 183 488H177C176.448 488 176 487.552 176 487C176 486.448 176.448 486 177 486H183C183.552 486 184 486.448 184 487ZM171 488C171.552 488 172 487.552 172 487C172 486.448 171.552 486 171 486H165C164.448 486 164 486.448 164 487C164 487.552 164.448 488 165 488H171ZM160 487C160 487.552 159.552 488 159 488H153C152.448 488 152 487.552 152 487C152 486.448 152.448 486 153 486H159C159.552 486 160 486.448 160 487ZM147 488C147.552 488 148 487.552 148 487C148 486.448 147.552 486 147 486H141C140.448 486 140 486.448 140 487C140 487.552 140.448 488 141 488H147ZM136 487C136 487.552 135.552 488 135 488H129C128.448 488 128 487.552 128 487C128 486.448 128.448 486 129 486H135C135.552 486 136 486.448 136 487ZM123 488C123.552 488 124 487.552 124 487C124 486.448 123.552 486 123 486H117C116.448 486 116 486.448 116 487C116 487.552 116.448 488 117 488H123ZM112 487C112 487.552 111.552 488 111 488H105C104.448 488 104 487.552 104 487C104 486.448 104.448 486 105 486H111C111.552 486 112 486.448 112 487ZM99 488C99.5523 488 100 487.552 100 487C100 486.448 99.5523 486 99 486H93C92.4477 486 92 486.448 92 487C92 487.552 92.4477 488 93 488H99ZM88 487C88 487.552 87.5523 488 87 488H81C80.4477 488 80 487.552 80 487C80 486.448 80.4477 486 81 486H87C87.5523 486 88 486.448 88 487ZM75 488C75.5523 488 76 487.552 76 487C76 486.448 75.5523 486 75 486H69C68.4477 486 68 486.448 68 487C68 487.552 68.4477 488 69 488H75ZM64 487C64 487.552 63.5523 488 63 488H57C56.4477 488 56 487.552 56 487C56 486.448 56.4477 486 57 486H63C63.5523 486 64 486.448 64 487ZM51 488C51.5523 488 52 487.552 52 487C52 486.448 51.5523 486 51 486H45C44.4477 486 44 486.448 44 487C44 487.552 44.4477 488 45 488H51ZM40 487C40 487.552 39.5523 488 39 488H33C32.4477 488 32 487.552 32 487C32 486.448 32.4477 486 33 486H39C39.5523 486 40 486.448 40 487ZM27 488C27.5523 488 28 487.552 28 487C28 486.448 27.5523 486 27 486H21C20.4477 486 20 486.448 20 487C20 487.552 20.4477 488 21 488H27Z" fill="url(#paint1_radial_4013_1066)"/>
<path d="M279 5C279 13.8366 286.163 21 295 21V19C287.268 19 281 12.732 281 5H279ZM24.2433 1H275.757V-1H24.2433V1ZM5 21C13.8366 21 21 13.8366 21 5H19C19 12.732 12.732 19 5 19V21ZM1 468.757V24.2433H-1V468.757H1ZM21 488C21 479.163 13.8366 472 5 472V474C12.732 474 19 480.268 19 488H21ZM5 504C13.8366 504 21 496.837 21 488H19C19 495.732 12.732 502 5 502V504ZM1 575.757V507.243H-1V575.757H1ZM21 595C21 586.163 13.8366 579 5 579V581C12.732 581 19 587.268 19 595H21ZM275.757 599H24.2433V601H275.757V599ZM281 595C281 587.268 287.268 581 295 581V579C286.163 579 279 586.163 279 595H281ZM299 507.243V575.757H301V507.243H299ZM279 488C279 496.837 286.163 504 295 504V502C287.268 502 281 495.732 281 488H279ZM295 472C286.163 472 279 479.163 279 488H281C281 480.268 287.268 474 295 474V472ZM299 24.2433V468.757H301V24.2433H299ZM279 489C280.105 489 281 488.105 281 487H279V489ZM273 489H279V487H273V489ZM271 487C271 488.105 271.895 489 273 489V487H271ZM273 485C271.895 485 271 485.895 271 487H273V485ZM279 485H273V487H279V485ZM281 487C281 485.895 280.105 485 279 485V487H281ZM267 487V489C268.105 489 269 488.105 269 487H267ZM267 487H269C269 485.895 268.105 485 267 485V487ZM261 487H267V485H261V487ZM261 487V485C259.895 485 259 485.895 259 487H261ZM261 487H259C259 488.105 259.895 489 261 489V487ZM267 487H261V489H267V487ZM255 489C256.105 489 257 488.105 257 487H255V489ZM249 489H255V487H249V489ZM247 487C247 488.105 247.895 489 249 489V487H247ZM249 485C247.895 485 247 485.895 247 487H249V485ZM255 485H249V487H255V485ZM257 487C257 485.895 256.105 485 255 485V487H257ZM243 487V489C244.105 489 245 488.105 245 487H243ZM243 487H245C245 485.895 244.105 485 243 485V487ZM237 487H243V485H237V487ZM237 487V485C235.895 485 235 485.895 235 487H237ZM237 487H235C235 488.105 235.895 489 237 489V487ZM243 487H237V489H243V487ZM231 489C232.105 489 233 488.105 233 487H231V489ZM225 489H231V487H225V489ZM223 487C223 488.105 223.895 489 225 489V487H223ZM225 485C223.895 485 223 485.895 223 487H225V485ZM231 485H225V487H231V485ZM233 487C233 485.895 232.105 485 231 485V487H233ZM219 487V489C220.105 489 221 488.105 221 487H219ZM219 487H221C221 485.895 220.105 485 219 485V487ZM213 487H219V485H213V487ZM213 487V485C211.895 485 211 485.895 211 487H213ZM213 487H211C211 488.105 211.895 489 213 489V487ZM219 487H213V489H219V487ZM207 489C208.105 489 209 488.105 209 487H207V489ZM201 489H207V487H201V489ZM199 487C199 488.105 199.895 489 201 489V487H199ZM201 485C199.895 485 199 485.895 199 487H201V485ZM207 485H201V487H207V485ZM209 487C209 485.895 208.105 485 207 485V487H209ZM195 487V489C196.105 489 197 488.105 197 487H195ZM195 487H197C197 485.895 196.105 485 195 485V487ZM189 487H195V485H189V487ZM189 487V485C187.895 485 187 485.895 187 487H189ZM189 487H187C187 488.105 187.895 489 189 489V487ZM195 487H189V489H195V487ZM183 489C184.105 489 185 488.105 185 487H183V489ZM177 489H183V487H177V489ZM175 487C175 488.105 175.895 489 177 489V487H175ZM177 485C175.895 485 175 485.895 175 487H177V485ZM183 485H177V487H183V485ZM185 487C185 485.895 184.105 485 183 485V487H185ZM171 487V489C172.105 489 173 488.105 173 487H171ZM171 487H173C173 485.895 172.105 485 171 485V487ZM165 487H171V485H165V487ZM165 487V485C163.895 485 163 485.895 163 487H165ZM165 487H163C163 488.105 163.895 489 165 489V487ZM171 487H165V489H171V487ZM159 489C160.105 489 161 488.105 161 487H159V489ZM153 489H159V487H153V489ZM151 487C151 488.105 151.895 489 153 489V487H151ZM153 485C151.895 485 151 485.895 151 487H153V485ZM159 485H153V487H159V485ZM161 487C161 485.895 160.105 485 159 485V487H161ZM147 487V489C148.105 489 149 488.105 149 487H147ZM147 487H149C149 485.895 148.105 485 147 485V487ZM141 487H147V485H141V487ZM141 487V485C139.895 485 139 485.895 139 487H141ZM141 487H139C139 488.105 139.895 489 141 489V487ZM147 487H141V489H147V487ZM135 489C136.105 489 137 488.105 137 487H135V489ZM129 489H135V487H129V489ZM127 487C127 488.105 127.895 489 129 489V487H127ZM129 485C127.895 485 127 485.895 127 487H129V485ZM135 485H129V487H135V485ZM137 487C137 485.895 136.105 485 135 485V487H137ZM123 487V489C124.105 489 125 488.105 125 487H123ZM123 487H125C125 485.895 124.105 485 123 485V487ZM117 487H123V485H117V487ZM117 487V485C115.895 485 115 485.895 115 487H117ZM117 487H115C115 488.105 115.895 489 117 489V487ZM123 487H117V489H123V487ZM111 489C112.105 489 113 488.105 113 487H111V489ZM105 489H111V487H105V489ZM103 487C103 488.105 103.895 489 105 489V487H103ZM105 485C103.895 485 103 485.895 103 487H105V485ZM111 485H105V487H111V485ZM113 487C113 485.895 112.105 485 111 485V487H113ZM99 487V489C100.105 489 101 488.105 101 487H99ZM99 487H101C101 485.895 100.105 485 99 485V487ZM93 487H99V485H93V487ZM93 487V485C91.8954 485 91 485.895 91 487H93ZM93 487H91C91 488.105 91.8954 489 93 489V487ZM99 487H93V489H99V487ZM87 489C88.1046 489 89 488.105 89 487H87V489ZM81 489H87V487H81V489ZM79 487C79 488.105 79.8954 489 81 489V487H79ZM81 485C79.8954 485 79 485.895 79 487H81V485ZM87 485H81V487H87V485ZM89 487C89 485.895 88.1046 485 87 485V487H89ZM75 487V489C76.1046 489 77 488.105 77 487H75ZM75 487H77C77 485.895 76.1046 485 75 485V487ZM69 487H75V485H69V487ZM69 487V485C67.8954 485 67 485.895 67 487H69ZM69 487H67C67 488.105 67.8954 489 69 489V487ZM75 487H69V489H75V487ZM63 489C64.1046 489 65 488.105 65 487H63V489ZM57 489H63V487H57V489ZM55 487C55 488.105 55.8954 489 57 489V487H55ZM57 485C55.8954 485 55 485.895 55 487H57V485ZM63 485H57V487H63V485ZM65 487C65 485.895 64.1046 485 63 485V487H65ZM51 487V489C52.1046 489 53 488.105 53 487H51ZM51 487H53C53 485.895 52.1046 485 51 485V487ZM45 487H51V485H45V487ZM45 487V485C43.8954 485 43 485.895 43 487H45ZM45 487H43C43 488.105 43.8954 489 45 489V487ZM51 487H45V489H51V487ZM39 489C40.1046 489 41 488.105 41 487H39V489ZM33 489H39V487H33V489ZM31 487C31 488.105 31.8954 489 33 489V487H31ZM33 485C31.8954 485 31 485.895 31 487H33V485ZM39 485H33V487H39V485ZM41 487C41 485.895 40.1046 485 39 485V487H41ZM27 487V489C28.1046 489 29 488.105 29 487H27ZM27 487H29C29 485.895 28.1046 485 27 485V487ZM21 487H27V485H21V487ZM21 487V485C19.8954 485 19 485.895 19 487H21ZM21 487H19C19 488.105 19.8954 489 21 489V487ZM27 487H21V489H27V487ZM295 474C296.467 474 297.938 473.486 299.057 472.593C300.183 471.693 301 470.363 301 468.757H299C299 469.638 298.56 470.43 297.809 471.03C297.05 471.636 296.02 472 295 472V474ZM301 507.243C301 505.637 300.183 504.307 299.057 503.407C297.938 502.514 296.467 502 295 502V504C296.02 504 297.05 504.364 297.809 504.97C298.56 505.57 299 506.362 299 507.243H301ZM295 581C296.467 581 297.938 580.486 299.057 579.593C300.183 578.693 301 577.363 301 575.757H299C299 576.638 298.56 577.43 297.809 578.03C297.05 578.636 296.02 579 295 579V581ZM275.757 601C277.363 601 278.693 600.183 279.593 599.057C280.486 597.938 281 596.467 281 595H279C279 596.02 278.636 597.05 278.03 597.809C277.43 598.56 276.638 599 275.757 599V601ZM19 595C19 596.467 19.5139 597.938 20.4074 599.057C21.307 600.183 22.6366 601 24.2433 601V599C23.3625 599 22.5704 598.56 21.9703 597.809C21.364 597.05 21 596.02 21 595H19ZM-1 575.757C-1 577.363 -0.183389 578.693 0.943162 579.593C2.06205 580.486 3.53284 581 5 581V579C3.97961 579 2.9504 578.636 2.19117 578.03C1.43961 577.43 1 576.638 1 575.757H-1ZM5 19C3.53285 19 2.06205 19.5139 0.943165 20.4074C-0.183384 21.307 -1 22.6366 -1 24.2433H1C1 23.3625 1.43962 22.5704 2.19118 21.9703C2.95041 21.364 3.97962 21 5 21V19ZM24.2433 -1C22.6366 -1 21.307 -0.183383 20.4074 0.943168C19.5139 2.06206 19 3.53285 19 5H21C21 3.97961 21.364 2.95041 21.9703 2.19118C22.5704 1.43961 23.3625 1 24.2433 1V-1ZM-1 468.757C-1 470.363 -0.183381 471.693 0.943168 472.593C2.06205 473.486 3.53285 474 5 474V472C3.97962 472 2.95041 471.636 2.19118 471.03C1.43961 470.43 1 469.638 1 468.757H-1ZM281 5C281 3.53285 280.486 2.06206 279.593 0.94317C278.693 -0.18338 277.363 -1 275.757 -1V1C276.638 1 277.43 1.43961 278.03 2.19118C278.636 2.95041 279 3.97962 279 5H281ZM5 502C3.53285 502 2.06205 502.514 0.943168 503.407C-0.183381 504.307 -1 505.637 -1 507.243H1C1 506.363 1.43961 505.57 2.19118 504.97C2.95041 504.364 3.97962 504 5 504V502ZM295 21C296.02 21 297.05 21.364 297.809 21.9703C298.56 22.5704 299 23.3625 299 24.2433H301C301 22.6366 300.183 21.307 299.057 20.4074C297.938 19.5139 296.467 19 295 19V21Z" fill="#24A0B5" mask="url(#path-1-inside-1_4013_1066)"/>
<path d="M37.0692 568.491V577.218H36.0124V569.598H35.9613L33.8306 571.013V569.939L36.0124 568.491H37.0692Z" fill="white"/>
<path d="M61.6372 510H59.4419V566.241H61.6372V510Z" fill="white"/>
<path d="M66.0279 510H63.8325V566.241H66.0279V510Z" fill="white"/>
<path d="M34.1953 510H32V566.241H34.1953V510Z" fill="white"/>
<path d="M38.586 510H36.3906V566.241H38.586V510Z" fill="white"/>
<path d="M49.5626 510H40.7812V561.128H49.5626V510Z" fill="white"/>
<path d="M56.149 510H52.856V561H56.149V510Z" fill="white"/>
<path d="M72.6138 510H70.4185V561.128H72.6138V510Z" fill="white"/>
<path d="M81.3951 510H77.0044V561.128H81.3951V510Z" fill="white"/>
<path d="M96.7627 510H94.5674V561.128H96.7627V510Z" fill="white"/>
<path d="M107.739 510H101.153V561.128H107.739V510Z" fill="white"/>
<path d="M112.13 510H109.935V561.128H112.13V510Z" fill="white"/>
<path d="M118.716 510H114.325V561.128H118.716V510Z" fill="white"/>
<path d="M127.498 510H125.302V561.128H127.498V510Z" fill="white"/>
<path d="M138.474 510H136.279V561.128H138.474V510Z" fill="white"/>
<path d="M142.865 510H140.67V561.128H142.865V510Z" fill="white"/>
<path d="M149.451 510H147.256V561.128H149.451V510Z" fill="white"/>
<path d="M158.232 510H156.037V561.128H158.232V510Z" fill="white"/>
<path d="M90.9085 577.218V576.451L93.7891 573.297C94.1272 572.928 94.4056 572.607 94.6244 572.334C94.8431 572.059 95.005 571.8 95.1102 571.559C95.2181 571.314 95.2721 571.059 95.2721 570.792C95.2721 570.485 95.1982 570.219 95.0505 569.995C94.9056 569.77 94.7068 569.597 94.4539 569.475C94.2011 569.353 93.917 569.292 93.6016 569.292C93.2664 569.292 92.9738 569.361 92.7238 569.5C92.4766 569.637 92.2849 569.829 92.1485 570.076C92.015 570.323 91.9482 570.613 91.9482 570.945H90.9425C90.9425 570.434 91.0604 569.985 91.2962 569.598C91.532 569.212 91.8531 568.911 92.2593 568.695C92.6684 568.479 93.1272 568.371 93.6357 568.371C94.1471 568.371 94.6002 568.479 94.9951 568.695C95.39 568.911 95.6997 569.202 95.9241 569.569C96.1485 569.935 96.2607 570.343 96.2607 570.792C96.2607 571.113 96.2025 571.427 96.086 571.733C95.9724 572.037 95.7735 572.377 95.4894 572.752C95.2082 573.124 94.8175 573.579 94.3175 574.116L92.3573 576.212V576.28H96.4141V577.218H90.9085ZM101.123 577.337C100.56 577.337 100.059 577.241 99.6187 577.047C99.1812 576.854 98.8332 576.586 98.5747 576.242C98.319 575.895 98.1798 575.493 98.157 575.036H99.2309C99.2536 575.317 99.3502 575.56 99.5207 575.765C99.6911 575.966 99.9141 576.123 100.19 576.233C100.465 576.344 100.771 576.4 101.106 576.4C101.481 576.4 101.813 576.334 102.103 576.204C102.393 576.073 102.62 575.891 102.785 575.658C102.95 575.425 103.032 575.155 103.032 574.848C103.032 574.527 102.952 574.245 102.793 574C102.634 573.753 102.401 573.56 102.095 573.421C101.788 573.282 101.413 573.212 100.97 573.212H100.271V572.275H100.97C101.316 572.275 101.62 572.212 101.881 572.087C102.146 571.962 102.352 571.786 102.499 571.559C102.65 571.331 102.725 571.064 102.725 570.758C102.725 570.462 102.66 570.205 102.529 569.986C102.399 569.767 102.214 569.597 101.975 569.475C101.739 569.353 101.461 569.292 101.14 569.292C100.839 569.292 100.555 569.347 100.288 569.458C100.024 569.566 99.8076 569.723 99.64 569.931C99.4724 570.135 99.3815 570.383 99.3673 570.672H98.3445C98.3616 570.215 98.4994 569.814 98.7579 569.471C99.0164 569.124 99.3545 568.854 99.7721 568.661C100.193 568.468 100.654 568.371 101.157 568.371C101.697 568.371 102.16 568.481 102.546 568.699C102.933 568.915 103.229 569.201 103.437 569.556C103.644 569.911 103.748 570.294 103.748 570.706C103.748 571.198 103.619 571.617 103.36 571.964C103.104 572.31 102.756 572.55 102.316 572.684V572.752C102.867 572.843 103.298 573.077 103.607 573.455C103.917 573.83 104.072 574.294 104.072 574.848C104.072 575.323 103.943 575.749 103.684 576.127C103.428 576.502 103.079 576.797 102.636 577.013C102.193 577.229 101.688 577.337 101.123 577.337ZM105.61 575.428V574.559L109.445 568.491H110.076V569.837H109.65L106.752 574.422V574.491H111.917V575.428H105.61ZM109.718 577.218V575.164V574.759V568.491H110.724V577.218H109.718ZM116.241 577.337C115.741 577.337 115.291 577.238 114.89 577.039C114.49 576.84 114.169 576.567 113.927 576.221C113.686 575.874 113.554 575.479 113.531 575.036H114.554C114.593 575.431 114.772 575.758 115.091 576.016C115.412 576.272 115.795 576.4 116.241 576.4C116.599 576.4 116.917 576.316 117.196 576.148C117.477 575.981 117.697 575.75 117.856 575.458C118.018 575.162 118.099 574.829 118.099 574.456C118.099 574.076 118.015 573.736 117.848 573.438C117.683 573.137 117.456 572.9 117.166 572.726C116.876 572.553 116.545 572.465 116.173 572.462C115.906 572.459 115.632 572.5 115.351 572.586C115.069 572.668 114.838 572.775 114.656 572.905L113.667 572.786L114.196 568.491H118.73V569.428H115.082L114.775 572.002H114.826C115.005 571.86 115.23 571.742 115.5 571.648C115.77 571.554 116.051 571.508 116.343 571.508C116.878 571.508 117.353 571.635 117.771 571.891C118.191 572.144 118.521 572.491 118.76 572.931C119.001 573.371 119.122 573.874 119.122 574.439C119.122 574.996 118.997 575.493 118.747 575.931C118.5 576.366 118.159 576.709 117.724 576.962C117.289 577.212 116.795 577.337 116.241 577.337ZM123.712 577.337C123.354 577.331 122.997 577.263 122.639 577.133C122.281 577.002 121.954 576.782 121.658 576.472C121.363 576.16 121.126 575.738 120.947 575.206C120.768 574.672 120.678 574.002 120.678 573.195C120.678 572.422 120.751 571.738 120.896 571.141C121.041 570.542 121.251 570.037 121.526 569.628C121.802 569.216 122.134 568.904 122.524 568.691C122.916 568.478 123.357 568.371 123.849 568.371C124.337 568.371 124.772 568.469 125.153 568.665C125.536 568.858 125.849 569.128 126.09 569.475C126.332 569.821 126.488 570.221 126.559 570.672H125.519C125.423 570.28 125.235 569.955 124.957 569.696C124.678 569.438 124.309 569.309 123.849 569.309C123.173 569.309 122.64 569.603 122.251 570.191C121.864 570.779 121.67 571.604 121.667 572.667H121.735C121.894 572.425 122.083 572.219 122.302 572.049C122.524 571.875 122.768 571.742 123.035 571.648C123.302 571.554 123.585 571.508 123.883 571.508C124.383 571.508 124.84 571.633 125.255 571.883C125.67 572.13 126.002 572.472 126.252 572.91C126.502 573.344 126.627 573.843 126.627 574.405C126.627 574.945 126.506 575.439 126.265 575.888C126.024 576.334 125.684 576.689 125.247 576.954C124.812 577.215 124.301 577.343 123.712 577.337ZM123.712 576.4C124.07 576.4 124.391 576.31 124.676 576.131C124.962 575.952 125.188 575.712 125.353 575.411C125.521 575.11 125.604 574.775 125.604 574.405C125.604 574.044 125.524 573.716 125.362 573.421C125.202 573.123 124.982 572.885 124.701 572.709C124.423 572.533 124.104 572.445 123.747 572.445C123.477 572.445 123.225 572.499 122.992 572.607C122.759 572.712 122.555 572.857 122.379 573.042C122.205 573.226 122.069 573.438 121.97 573.677C121.87 573.912 121.82 574.161 121.82 574.422C121.82 574.769 121.901 575.093 122.063 575.394C122.228 575.695 122.452 575.938 122.737 576.123C123.024 576.307 123.349 576.4 123.712 576.4ZM128.576 577.218L132.479 569.496V569.428H127.979V568.491H133.57V569.479L129.684 577.218H128.576Z" fill="white"/>
<path d="M162.623 510H160.428V566.241H162.623V510Z" fill="white"/>
<path d="M167.014 510H164.818V566.241H167.014V510Z" fill="white"/>
<path d="M171.405 510H169.209V561.128H171.405V510Z" fill="white"/>
<path d="M177.991 510H175.795V561.128H177.991V510Z" fill="white"/>
<path d="M191.163 510H184.577V561.128H191.163V510Z" fill="white"/>
<path d="M195.554 510H193.358V561.128H195.554V510Z" fill="white"/>
<path d="M204.335 510H199.944V561.128H204.335V510Z" fill="white"/>
<path d="M213.116 510H208.726V561.128H213.116V510Z" fill="white"/>
<path d="M221.898 510H215.312V561.128H221.898V510Z" fill="white"/>
<path d="M228.484 510H226.289V561.128H228.484V510Z" fill="white"/>
<path d="M235.07 510H230.679V561.128H235.07V510Z" fill="white"/>
<path d="M241.656 510H237.265V561.128H241.656V510Z" fill="white"/>
<path d="M248.242 510H246.047V561.128H248.242V510Z" fill="white"/>
<path d="M252.633 510H250.438V561.128H252.633V510Z" fill="white"/>
<path d="M197.653 577.337C197.068 577.337 196.551 577.233 196.102 577.026C195.656 576.816 195.308 576.527 195.058 576.161C194.808 575.792 194.685 575.371 194.687 574.9C194.685 574.53 194.757 574.189 194.905 573.877C195.053 573.562 195.254 573.299 195.51 573.089C195.768 572.875 196.057 572.741 196.375 572.684V572.633C195.957 572.525 195.625 572.29 195.378 571.929C195.131 571.566 195.008 571.152 195.011 570.689C195.008 570.246 195.121 569.85 195.348 569.5C195.575 569.151 195.888 568.875 196.285 568.674C196.686 568.472 197.142 568.371 197.653 568.371C198.159 568.371 198.611 568.472 199.008 568.674C199.406 568.875 199.719 569.151 199.946 569.5C200.176 569.85 200.293 570.246 200.295 570.689C200.293 571.152 200.166 571.566 199.916 571.929C199.669 572.29 199.341 572.525 198.932 572.633V572.684C199.247 572.741 199.531 572.875 199.784 573.089C200.037 573.299 200.239 573.562 200.389 573.877C200.54 574.189 200.616 574.53 200.619 574.9C200.616 575.371 200.489 575.792 200.236 576.161C199.986 576.527 199.638 576.816 199.192 577.026C198.749 577.233 198.236 577.337 197.653 577.337ZM197.653 576.4C198.048 576.4 198.389 576.336 198.676 576.208C198.963 576.08 199.185 575.9 199.341 575.667C199.497 575.434 199.577 575.161 199.579 574.848C199.577 574.519 199.491 574.228 199.324 573.975C199.156 573.722 198.928 573.523 198.638 573.378C198.351 573.233 198.023 573.161 197.653 573.161C197.281 573.161 196.949 573.233 196.656 573.378C196.366 573.523 196.138 573.722 195.97 573.975C195.805 574.228 195.724 574.519 195.727 574.848C195.724 575.161 195.8 575.434 195.953 575.667C196.109 575.9 196.332 576.08 196.622 576.208C196.912 576.336 197.256 576.4 197.653 576.4ZM197.653 572.258C197.966 572.258 198.243 572.195 198.484 572.07C198.729 571.945 198.92 571.77 199.06 571.546C199.199 571.321 199.27 571.059 199.273 570.758C199.27 570.462 199.2 570.205 199.064 569.986C198.928 569.765 198.739 569.594 198.497 569.475C198.256 569.353 197.974 569.292 197.653 569.292C197.327 569.292 197.041 569.353 196.797 569.475C196.553 569.594 196.364 569.765 196.23 569.986C196.097 570.205 196.031 570.462 196.034 570.758C196.031 571.059 196.098 571.321 196.234 571.546C196.374 571.77 196.565 571.945 196.81 572.07C197.054 572.195 197.335 572.258 197.653 572.258ZM205.031 568.371C205.389 568.374 205.747 568.442 206.105 568.576C206.463 568.709 206.789 568.931 207.085 569.241C207.38 569.547 207.617 569.966 207.796 570.498C207.975 571.029 208.065 571.695 208.065 572.496C208.065 573.272 207.991 573.961 207.843 574.563C207.698 575.162 207.488 575.668 207.213 576.08C206.94 576.492 206.608 576.804 206.216 577.017C205.826 577.231 205.386 577.337 204.894 577.337C204.406 577.337 203.97 577.241 203.586 577.047C203.206 576.851 202.893 576.58 202.649 576.233C202.407 575.884 202.252 575.479 202.184 575.019H203.224C203.318 575.419 203.504 575.75 203.782 576.012C204.064 576.27 204.434 576.4 204.894 576.4C205.568 576.4 206.099 576.106 206.488 575.517C206.88 574.929 207.076 574.098 207.076 573.025H207.008C206.849 573.263 206.66 573.469 206.441 573.642C206.223 573.816 205.98 573.949 205.713 574.043C205.446 574.137 205.162 574.184 204.86 574.184C204.36 574.184 203.902 574.06 203.484 573.813C203.069 573.563 202.737 573.221 202.487 572.786C202.24 572.348 202.116 571.848 202.116 571.286C202.116 570.752 202.235 570.263 202.474 569.82C202.716 569.374 203.054 569.019 203.488 568.755C203.926 568.491 204.44 568.363 205.031 568.371ZM205.031 569.309C204.673 569.309 204.35 569.398 204.064 569.577C203.779 569.753 203.554 569.992 203.386 570.293C203.221 570.591 203.139 570.922 203.139 571.286C203.139 571.65 203.218 571.981 203.377 572.279C203.539 572.574 203.76 572.81 204.038 572.986C204.319 573.16 204.639 573.246 204.997 573.246C205.267 573.246 205.518 573.194 205.751 573.089C205.984 572.981 206.187 572.834 206.36 572.65C206.537 572.462 206.674 572.25 206.774 572.015C206.873 571.776 206.923 571.527 206.923 571.269C206.923 570.928 206.841 570.608 206.676 570.31C206.514 570.012 206.289 569.77 206.002 569.586C205.718 569.401 205.394 569.309 205.031 569.309ZM212.809 568.491V577.218H211.752V569.598H211.701L209.57 571.013V569.939L211.752 568.491H212.809ZM218.165 577.337C217.523 577.337 216.977 577.162 216.525 576.813C216.073 576.461 215.728 575.951 215.489 575.283C215.251 574.613 215.131 573.803 215.131 572.854C215.131 571.911 215.251 571.106 215.489 570.438C215.731 569.767 216.077 569.256 216.529 568.904C216.984 568.549 217.529 568.371 218.165 568.371C218.802 568.371 219.346 568.549 219.798 568.904C220.252 569.256 220.599 569.767 220.837 570.438C221.079 571.106 221.2 571.911 221.2 572.854C221.2 573.803 221.08 574.613 220.842 575.283C220.603 575.951 220.258 576.461 219.806 576.813C219.354 577.162 218.807 577.337 218.165 577.337ZM218.165 576.4C218.802 576.4 219.296 576.093 219.648 575.479C220.001 574.866 220.177 573.991 220.177 572.854C220.177 572.098 220.096 571.455 219.934 570.924C219.775 570.392 219.545 569.988 219.244 569.709C218.945 569.431 218.586 569.292 218.165 569.292C217.535 569.292 217.042 569.603 216.687 570.225C216.332 570.844 216.154 571.721 216.154 572.854C216.154 573.61 216.234 574.252 216.393 574.78C216.552 575.309 216.78 575.711 217.079 575.986C217.38 576.262 217.742 576.4 218.165 576.4ZM222.819 577.218V576.451L225.7 573.297C226.038 572.928 226.316 572.607 226.535 572.334C226.753 572.059 226.915 571.8 227.021 571.559C227.128 571.314 227.182 571.059 227.182 570.792C227.182 570.485 227.109 570.219 226.961 569.995C226.816 569.77 226.617 569.597 226.364 569.475C226.111 569.353 225.827 569.292 225.512 569.292C225.177 569.292 224.884 569.361 224.634 569.5C224.387 569.637 224.195 569.829 224.059 570.076C223.925 570.323 223.859 570.613 223.859 570.945H222.853C222.853 570.434 222.971 569.985 223.207 569.598C223.442 569.212 223.763 568.911 224.17 568.695C224.579 568.479 225.038 568.371 225.546 568.371C226.057 568.371 226.511 568.479 226.905 568.695C227.3 568.911 227.61 569.202 227.834 569.569C228.059 569.935 228.171 570.343 228.171 570.792C228.171 571.113 228.113 571.427 227.996 571.733C227.883 572.037 227.684 572.377 227.4 572.752C227.119 573.124 226.728 573.579 226.228 574.116L224.268 576.212V576.28H228.325V577.218H222.819ZM232.982 577.337C232.624 577.331 232.266 577.263 231.908 577.133C231.55 577.002 231.224 576.782 230.928 576.472C230.633 576.16 230.396 575.738 230.217 575.206C230.038 574.672 229.948 574.002 229.948 573.195C229.948 572.422 230.021 571.738 230.165 571.141C230.31 570.542 230.521 570.037 230.796 569.628C231.072 569.216 231.404 568.904 231.793 568.691C232.185 568.478 232.627 568.371 233.119 568.371C233.607 568.371 234.042 568.469 234.423 568.665C234.806 568.858 235.119 569.128 235.36 569.475C235.602 569.821 235.758 570.221 235.829 570.672H234.789C234.692 570.28 234.505 569.955 234.227 569.696C233.948 569.438 233.579 569.309 233.119 569.309C232.442 569.309 231.91 569.603 231.521 570.191C231.134 570.779 230.94 571.604 230.937 572.667H231.005C231.164 572.425 231.353 572.219 231.572 572.049C231.793 571.875 232.038 571.742 232.305 571.648C232.572 571.554 232.854 571.508 233.153 571.508C233.653 571.508 234.11 571.633 234.525 571.883C234.94 572.13 235.272 572.472 235.522 572.91C235.772 573.344 235.897 573.843 235.897 574.405C235.897 574.945 235.776 575.439 235.535 575.888C235.293 576.334 234.954 576.689 234.516 576.954C234.082 577.215 233.57 577.343 232.982 577.337ZM232.982 576.4C233.34 576.4 233.661 576.31 233.945 576.131C234.232 575.952 234.458 575.712 234.623 575.411C234.79 575.11 234.874 574.775 234.874 574.405C234.874 574.044 234.793 573.716 234.631 573.421C234.472 573.123 234.252 572.885 233.971 572.709C233.692 572.533 233.374 572.445 233.016 572.445C232.746 572.445 232.495 572.499 232.262 572.607C232.029 572.712 231.825 572.857 231.648 573.042C231.475 573.226 231.339 573.438 231.239 573.677C231.14 573.912 231.09 574.161 231.09 574.422C231.09 574.769 231.171 575.093 231.333 575.394C231.498 575.695 231.722 575.938 232.006 576.123C232.293 576.307 232.619 576.4 232.982 576.4Z" fill="white"/>
<path d="M263.609 510H261.414V566.241H263.609V510Z" fill="white"/>
<path d="M268 510H265.805V566.241H268V510Z" fill="white"/>
<defs>
<radialGradient id="paint0_radial_4013_1066" cx="0" cy="0" r="1" gradientUnits="userSpaceOnUse" gradientTransform="translate(150 -6.2645e-06) rotate(90) scale(83.5 150)">
<stop stop-color="#24A0B5" stop-opacity="0.5"/>
<stop offset="1" stop-color="#24A0B5" stop-opacity="0"/>
</radialGradient>
<radialGradient id="paint1_radial_4013_1066" cx="0" cy="0" r="1" gradientUnits="userSpaceOnUse" gradientTransform="translate(150 619.5) rotate(-90) scale(217 150)">
<stop stop-color="#24A0B5" stop-opacity="0.5"/>
<stop offset="1" stop-color="#24A0B5" stop-opacity="0"/>
</radialGradient>
</defs>
</svg>
